<?xml version="1.0" encoding="utf-8"?>
<!-- Generator: Adobe Illustrator 18.0.0, SVG Export Plug-In . SVG Version: 6.00 Build 0)  -->
<!DOCTYPE svg PUBLIC "-//W3C//DTD SVG 1.1//EN" "http://www.w3.org/Graphics/SVG/1.1/DTD/svg11.dtd">
<svg version="1.1" id="Capa_1" xmlns="http://www.w3.org/2000/svg" xmlns:xlink="http://www.w3.org/1999/xlink" x="0px" y="0px"
	 viewBox="16 21 32 22" enable-background="new 16 21 32 22" xml:space="preserve">
<g id="mail">
	<g>
		<path fill="#FFFFFF" stroke="#000000" stroke-width="0.1" stroke-miterlimit="10" d="M46,21H18c-1.1,0-2,0.9-2,2v18
			c0,1.1,0.9,2,2,2h28c1.1,0,2-0.9,2-2V23C48,21.9,47.1,21,46,21z M45.8,22.5L32,36.2L18.3,22.5H45.8z M17.3,41.5V23.6l10.1,10.1
			l-7.9,7.8H17.3z M21.5,41.5l6.8-6.7l2.2,2.1c0.8,0.8,2.2,0.8,3,0l2.1-2l6.6,6.6L21.5,41.5z M46.7,41.5h-2l-7.9-7.8l9.9-9.9V41.5z"
			/>
	</g>
</g>
</svg>
