<svg xmlns="http://www.w3.org/2000/svg" width="22.895" height="16.022" viewBox="0 0 22.895 16.022"><defs><style>.a{fill:#f5f5f5;}.b{fill:#ff4b55;}.c{fill:#41479b;}</style></defs><path class="a" d="M22.5,104.3H.395A.409.409,0,0,1,0,103.876V88.7a.409.409,0,0,1,.395-.422H22.5a.409.409,0,0,1,.395.422v15.178A.409.409,0,0,1,22.5,104.3Z" transform="translate(0 -88.276)"/><path class="b" d="M22.895,89.43H0v-.759a.4.4,0,0,1,.395-.395H22.5a.4.4,0,0,1,.395.395v.759Z" transform="translate(0 -88.276)"/><rect class="b" width="22.895" height="1.154" transform="translate(0 4.956)"/><rect class="b" width="22.895" height="1.154" transform="translate(0 2.478)"/><path class="b" d="M22.895,244.252H.395A.4.4,0,0,1,0,243.857V243.1H22.895Z" transform="translate(0 -235.664)"/><rect class="b" width="22.895" height="1.154" transform="translate(0 12.39)"/><path class="b" d="M22.5,399.075H.395A.4.4,0,0,1,0,398.68v-.759H22.895v.759A.4.4,0,0,1,22.5,399.075Z" transform="translate(0 -383.053)"/><rect class="b" width="22.895" height="1.154" transform="translate(0 9.912)"/><path class="c" d="M10.263,88.277H.395A.4.4,0,0,0,0,88.672v7.287a.4.4,0,0,0,.395.395h9.868a.4.4,0,0,0,.395-.395V88.672A.4.4,0,0,0,10.263,88.277Z" transform="translate(0 -88.277)"/><g transform="translate(0.637 0.881)"><path class="a" d="M14.724,107.994l.087.262.276,0a.037.037,0,0,1,.022.067l-.222.164.083.263a.037.037,0,0,1-.057.042l-.225-.161-.225.161a.037.037,0,0,1-.057-.042l.083-.263-.222-.164a.037.037,0,0,1,.022-.067l.276,0,.087-.262A.037.037,0,0,1,14.724,107.994Z" transform="translate(-14.253 -107.969)"/><path class="a" d="M14.724,138.649l.087.262.276,0a.037.037,0,0,1,.022.067l-.222.164.083.263a.037.037,0,0,1-.057.042l-.225-.161-.225.161a.037.037,0,0,1-.057-.042l.083-.263-.222-.164a.037.037,0,0,1,.022-.067l.276,0,.087-.262A.037.037,0,0,1,14.724,138.649Z" transform="translate(-14.253 -137.253)"/><path class="a" d="M14.724,169.3l.087.262.276,0a.037.037,0,0,1,.022.067l-.222.164.083.263a.037.037,0,0,1-.057.042l-.225-.161-.225.161a.037.037,0,0,1-.057-.042l.083-.263-.222-.164a.037.037,0,0,1,.022-.067l.276,0,.087-.262A.037.037,0,0,1,14.724,169.3Z" transform="translate(-14.253 -166.536)"/><path class="a" d="M14.724,199.957l.087.262.276,0a.037.037,0,0,1,.022.067l-.222.164.083.263a.037.037,0,0,1-.057.042l-.225-.161-.225.161a.037.037,0,0,1-.057-.042l.083-.263-.222-.164a.037.037,0,0,1,.022-.067l.276,0,.087-.262A.037.037,0,0,1,14.724,199.957Z" transform="translate(-14.253 -195.82)"/><path class="a" d="M14.724,230.611l.087.262.276,0a.037.037,0,0,1,.022.067l-.222.164.083.263a.037.037,0,0,1-.057.041l-.225-.161-.225.161a.037.037,0,0,1-.057-.041l.083-.263-.222-.164a.037.037,0,0,1,.022-.067l.276,0,.087-.262A.037.037,0,0,1,14.724,230.611Z" transform="translate(-14.253 -225.102)"/><path class="a" d="M38.517,123.024l.087.262.276,0a.037.037,0,0,1,.022.067l-.222.164.083.263a.037.037,0,0,1-.057.041l-.225-.161-.225.161a.037.037,0,0,1-.057-.041l.083-.263-.222-.164a.037.037,0,0,1,.022-.067l.276,0,.087-.262A.037.037,0,0,1,38.517,123.024Z" transform="translate(-36.982 -122.326)"/><path class="a" d="M38.517,153.678l.087.262.276,0a.037.037,0,0,1,.022.067l-.222.164.083.263a.037.037,0,0,1-.057.041l-.225-.161-.225.161a.037.037,0,0,1-.057-.041l.083-.263-.222-.164a.037.037,0,0,1,.022-.067l.276,0,.087-.262A.037.037,0,0,1,38.517,153.678Z" transform="translate(-36.982 -151.61)"/><path class="a" d="M38.517,184.332l.087.262.276,0a.037.037,0,0,1,.022.067l-.222.164.083.263a.037.037,0,0,1-.057.042l-.225-.161-.225.161a.037.037,0,0,1-.057-.042l.083-.263-.222-.164a.037.037,0,0,1,.022-.067l.276,0,.087-.262A.037.037,0,0,1,38.517,184.332Z" transform="translate(-36.982 -180.893)"/><path class="a" d="M38.517,214.987l.087.262.276,0a.037.037,0,0,1,.022.067l-.222.164.083.263a.037.037,0,0,1-.057.041l-.225-.161-.225.161a.037.037,0,0,1-.057-.041l.083-.263-.222-.164a.037.037,0,0,1,.022-.067l.276,0,.087-.262A.037.037,0,0,1,38.517,214.987Z" transform="translate(-36.982 -210.177)"/><path class="a" d="M62.31,107.994l.087.262.276,0a.037.037,0,0,1,.022.067l-.222.164.083.263a.037.037,0,0,1-.057.041l-.225-.161-.225.161a.037.037,0,0,1-.057-.041l.083-.263-.222-.164a.037.037,0,0,1,.022-.067l.276,0,.087-.262A.037.037,0,0,1,62.31,107.994Z" transform="translate(-59.711 -107.969)"/><path class="a" d="M62.31,138.649l.087.262.276,0a.037.037,0,0,1,.022.067l-.222.164.083.263a.037.037,0,0,1-.057.041l-.225-.161-.225.161a.037.037,0,0,1-.057-.041l.083-.263-.222-.164a.037.037,0,0,1,.022-.067l.276,0,.087-.262A.037.037,0,0,1,62.31,138.649Z" transform="translate(-59.711 -137.253)"/><path class="a" d="M62.31,169.3l.087.262.276,0a.037.037,0,0,1,.022.067l-.222.164.083.263a.037.037,0,0,1-.057.042l-.225-.161-.225.161a.037.037,0,0,1-.057-.042l.083-.263-.222-.164a.037.037,0,0,1,.022-.067l.276,0,.087-.262A.037.037,0,0,1,62.31,169.3Z" transform="translate(-59.711 -166.536)"/><path class="a" d="M62.31,199.957l.087.262.276,0a.037.037,0,0,1,.022.067l-.222.164.083.263a.037.037,0,0,1-.057.042l-.225-.161-.225.161a.037.037,0,0,1-.057-.042l.083-.263-.222-.164a.037.037,0,0,1,.022-.067l.276,0,.087-.262A.037.037,0,0,1,62.31,199.957Z" transform="translate(-59.711 -195.82)"/><path class="a" d="M62.31,230.61l.087.262.276,0a.037.037,0,0,1,.022.067l-.222.164.083.263a.037.037,0,0,1-.057.041l-.225-.161-.225.161a.037.037,0,0,1-.057-.041l.083-.263-.222-.164a.037.037,0,0,1,.022-.067l.276,0,.087-.262A.037.037,0,0,1,62.31,230.61Z" transform="translate(-59.711 -225.102)"/><path class="a" d="M86.1,123.024l.087.262.276,0a.037.037,0,0,1,.022.067l-.222.164.083.263a.037.037,0,0,1-.057.041l-.225-.161-.225.161a.037.037,0,0,1-.057-.041l.083-.263-.222-.164a.037.037,0,0,1,.022-.067l.276,0,.087-.262A.037.037,0,0,1,86.1,123.024Z" transform="translate(-82.441 -122.326)"/><path class="a" d="M86.1,153.678l.087.262.276,0a.037.037,0,0,1,.022.067l-.222.164.083.263a.037.037,0,0,1-.057.041l-.225-.161-.225.161a.037.037,0,0,1-.057-.041l.083-.263-.222-.164a.037.037,0,0,1,.022-.067l.276,0,.087-.262A.037.037,0,0,1,86.1,153.678Z" transform="translate(-82.441 -151.61)"/><path class="a" d="M86.1,184.332l.087.262.276,0a.037.037,0,0,1,.022.067l-.222.164.083.263a.037.037,0,0,1-.057.042l-.225-.161-.225.161a.037.037,0,0,1-.057-.042l.083-.263-.222-.164a.037.037,0,0,1,.022-.067l.276,0,.087-.262A.037.037,0,0,1,86.1,184.332Z" transform="translate(-82.441 -180.893)"/><path class="a" d="M86.1,214.987l.087.262.276,0a.037.037,0,0,1,.022.067l-.222.164.083.263a.037.037,0,0,1-.057.041l-.225-.161-.225.161a.037.037,0,0,1-.057-.041l.083-.263-.222-.164a.037.037,0,0,1,.022-.067l.276,0,.087-.262A.037.037,0,0,1,86.1,214.987Z" transform="translate(-82.441 -210.177)"/><path class="a" d="M109.9,107.994l.087.262.276,0a.037.037,0,0,1,.022.067l-.222.164.083.263a.037.037,0,0,1-.057.041l-.225-.161-.225.161a.037.037,0,0,1-.057-.041l.083-.263-.222-.164a.037.037,0,0,1,.022-.067l.276,0,.087-.262A.037.037,0,0,1,109.9,107.994Z" transform="translate(-105.169 -107.969)"/><path class="a" d="M109.9,138.649l.087.262.276,0a.037.037,0,0,1,.022.067l-.222.164.083.263a.037.037,0,0,1-.057.041l-.225-.161-.225.161a.037.037,0,0,1-.057-.041l.083-.263-.222-.164a.037.037,0,0,1,.022-.067l.276,0,.087-.262A.037.037,0,0,1,109.9,138.649Z" transform="translate(-105.169 -137.253)"/><path class="a" d="M109.9,169.3l.087.262.276,0a.037.037,0,0,1,.022.067l-.222.164.083.263a.037.037,0,0,1-.057.042l-.225-.161-.225.161a.037.037,0,0,1-.057-.042l.083-.263-.222-.164a.037.037,0,0,1,.022-.067l.276,0,.087-.262A.037.037,0,0,1,109.9,169.3Z" transform="translate(-105.169 -166.536)"/><path class="a" d="M109.9,199.957l.087.262.276,0a.037.037,0,0,1,.022.067l-.222.164.083.263a.037.037,0,0,1-.057.042l-.225-.161-.225.161a.037.037,0,0,1-.057-.042l.083-.263-.222-.164a.037.037,0,0,1,.022-.067l.276,0,.087-.262A.037.037,0,0,1,109.9,199.957Z" transform="translate(-105.169 -195.82)"/><path class="a" d="M109.9,230.61l.087.262.276,0a.037.037,0,0,1,.022.067l-.222.164.083.263a.037.037,0,0,1-.057.041l-.225-.161-.225.161a.037.037,0,0,1-.057-.041l.083-.263-.222-.164a.037.037,0,0,1,.022-.067l.276,0,.087-.262A.037.037,0,0,1,109.9,230.61Z" transform="translate(-105.169 -225.102)"/><path class="a" d="M133.69,123.024l.087.262.276,0a.037.037,0,0,1,.022.067l-.222.164.083.263a.037.037,0,0,1-.057.041l-.225-.161-.225.161a.037.037,0,0,1-.057-.041l.083-.263-.222-.164a.037.037,0,0,1,.022-.067l.276,0,.087-.262A.037.037,0,0,1,133.69,123.024Z" transform="translate(-127.899 -122.326)"/><path class="a" d="M133.69,153.678l.087.262.276,0a.037.037,0,0,1,.022.067l-.222.164.083.263a.037.037,0,0,1-.057.041l-.225-.161-.225.161a.037.037,0,0,1-.057-.041l.083-.263-.222-.164a.037.037,0,0,1,.022-.067l.276,0,.087-.262A.037.037,0,0,1,133.69,153.678Z" transform="translate(-127.899 -151.61)"/><path class="a" d="M133.69,184.332l.087.262.276,0a.037.037,0,0,1,.022.067l-.222.164.083.263a.037.037,0,0,1-.057.042l-.225-.161-.225.161a.037.037,0,0,1-.057-.042l.083-.263-.222-.164a.037.037,0,0,1,.022-.067l.276,0,.087-.262A.037.037,0,0,1,133.69,184.332Z" transform="translate(-127.899 -180.893)"/><path class="a" d="M133.69,214.987l.087.262.276,0a.037.037,0,0,1,.022.067l-.222.164.083.263a.037.037,0,0,1-.057.041l-.225-.161-.225.161a.037.037,0,0,1-.057-.041l.083-.263-.222-.164a.037.037,0,0,1,.022-.067l.276,0,.087-.262A.037.037,0,0,1,133.69,214.987Z" transform="translate(-127.899 -210.177)"/><path class="a" d="M157.484,107.994l.087.262.276,0a.037.037,0,0,1,.022.067l-.222.164.083.263a.037.037,0,0,1-.057.041l-.225-.161-.225.161a.037.037,0,0,1-.057-.041l.083-.263-.222-.164a.037.037,0,0,1,.022-.067l.276,0,.087-.262A.037.037,0,0,1,157.484,107.994Z" transform="translate(-150.629 -107.969)"/><path class="a" d="M157.484,138.649l.087.262.276,0a.037.037,0,0,1,.022.067l-.222.164.083.263a.037.037,0,0,1-.057.041l-.225-.161-.225.161a.037.037,0,0,1-.057-.041l.083-.263-.222-.164a.037.037,0,0,1,.022-.067l.276,0,.087-.262A.037.037,0,0,1,157.484,138.649Z" transform="translate(-150.629 -137.253)"/><path class="a" d="M157.484,169.3l.087.262.276,0a.037.037,0,0,1,.022.067l-.222.164.083.263a.037.037,0,0,1-.057.042l-.225-.161-.225.161a.037.037,0,0,1-.057-.042l.083-.263-.222-.164a.037.037,0,0,1,.022-.067l.276,0,.087-.262A.037.037,0,0,1,157.484,169.3Z" transform="translate(-150.629 -166.536)"/><path class="a" d="M157.484,199.957l.087.262.276,0a.037.037,0,0,1,.022.067l-.222.164.083.263a.037.037,0,0,1-.057.042l-.225-.161-.225.161a.037.037,0,0,1-.057-.042l.083-.263-.222-.164a.037.037,0,0,1,.022-.067l.276,0,.087-.262A.037.037,0,0,1,157.484,199.957Z" transform="translate(-150.629 -195.82)"/><path class="a" d="M157.484,230.61l.087.262.276,0a.037.037,0,0,1,.022.067l-.222.164.083.263a.037.037,0,0,1-.057.041l-.225-.161-.225.161a.037.037,0,0,1-.057-.041l.083-.263-.222-.164a.037.037,0,0,1,.022-.067l.276,0,.087-.262A.037.037,0,0,1,157.484,230.61Z" transform="translate(-150.629 -225.102)"/><path class="a" d="M181.277,123.024l.087.262.276,0a.037.037,0,0,1,.022.067l-.222.164.083.263a.037.037,0,0,1-.057.041l-.225-.161-.225.161a.037.037,0,0,1-.057-.041l.083-.263-.222-.164a.037.037,0,0,1,.022-.067l.276,0,.087-.262A.037.037,0,0,1,181.277,123.024Z" transform="translate(-173.358 -122.326)"/><path class="a" d="M181.277,153.678l.087.262.276,0a.037.037,0,0,1,.022.067l-.222.164.083.263a.037.037,0,0,1-.057.041l-.225-.161-.225.161a.037.037,0,0,1-.057-.041l.083-.263-.222-.164a.037.037,0,0,1,.022-.067l.276,0,.087-.262A.037.037,0,0,1,181.277,153.678Z" transform="translate(-173.358 -151.61)"/><path class="a" d="M181.277,184.332l.087.262.276,0a.037.037,0,0,1,.022.067l-.222.164.083.263a.037.037,0,0,1-.057.042l-.225-.161-.225.161a.037.037,0,0,1-.057-.042l.083-.263-.222-.164a.037.037,0,0,1,.022-.067l.276,0,.087-.262A.037.037,0,0,1,181.277,184.332Z" transform="translate(-173.358 -180.893)"/><path class="a" d="M181.277,214.987l.087.262.276,0a.037.037,0,0,1,.022.067l-.222.164.083.263a.037.037,0,0,1-.057.041l-.225-.161-.225.161a.037.037,0,0,1-.057-.041l.083-.263-.222-.164a.037.037,0,0,1,.022-.067l.276,0,.087-.262A.037.037,0,0,1,181.277,214.987Z" transform="translate(-173.358 -210.177)"/><path class="a" d="M205.071,107.994l.087.262.276,0a.037.037,0,0,1,.022.067l-.222.164.083.263a.037.037,0,0,1-.057.041l-.225-.161-.225.161a.037.037,0,0,1-.057-.041l.083-.263-.222-.164a.037.037,0,0,1,.022-.067l.276,0,.087-.262A.037.037,0,0,1,205.071,107.994Z" transform="translate(-196.088 -107.969)"/><path class="a" d="M205.071,138.649l.087.262.276,0a.037.037,0,0,1,.022.067l-.222.164.083.263a.037.037,0,0,1-.057.041l-.225-.161-.225.161a.037.037,0,0,1-.057-.041l.083-.263-.222-.164a.037.037,0,0,1,.022-.067l.276,0,.087-.262A.037.037,0,0,1,205.071,138.649Z" transform="translate(-196.088 -137.253)"/><path class="a" d="M205.071,169.3l.087.262.276,0a.037.037,0,0,1,.022.067l-.222.164.083.263a.037.037,0,0,1-.057.042l-.225-.161-.225.161a.037.037,0,0,1-.057-.042l.083-.263-.222-.164a.037.037,0,0,1,.022-.067l.276,0L205,169.3A.037.037,0,0,1,205.071,169.3Z" transform="translate(-196.088 -166.536)"/><path class="a" d="M205.071,199.957l.087.262.276,0a.037.037,0,0,1,.022.067l-.222.164.083.263a.037.037,0,0,1-.057.042l-.225-.161-.225.161a.037.037,0,0,1-.057-.042l.083-.263-.222-.164a.037.037,0,0,1,.022-.067l.276,0,.087-.262A.037.037,0,0,1,205.071,199.957Z" transform="translate(-196.088 -195.82)"/><path class="a" d="M205.071,230.61l.087.262.276,0a.037.037,0,0,1,.022.067l-.222.164.083.263a.037.037,0,0,1-.057.041l-.225-.161-.225.161a.037.037,0,0,1-.057-.041l.083-.263-.222-.164a.037.037,0,0,1,.022-.067l.276,0,.087-.262A.037.037,0,0,1,205.071,230.61Z" transform="translate(-196.088 -225.102)"/></g></svg>